<svg width="128" height="128" viewBox="0 0 128 128" fill="red" xmlns="http://www.w3.org/2000/svg">
    <path d="M110.738 66.7125C112.838 63.9375 114 60.5375 114 57C114 51.3875 110.863 46.075 105.812 43.1125C104.512 42.3499 103.032 41.9486 101.525 41.95H71.55L72.3 26.5875C72.475 22.875 71.1625 19.35 68.6125 16.6625C67.3611 15.3378 65.8513 14.2839 64.1764 13.5658C62.5016 12.8477 60.6973 12.4807 58.875 12.4875C52.375 12.4875 46.625 16.8625 44.9 23.125L34.1625 62H34.125V115.5H93.1625C94.3125 115.5 95.4375 115.275 96.475 114.825C102.425 112.287 106.262 106.475 106.262 100.025C106.262 98.45 106.038 96.9 105.588 95.4C107.688 92.625 108.85 89.225 108.85 85.6875C108.85 84.1125 108.625 82.5625 108.175 81.0625C110.275 78.2875 111.438 74.8875 111.438 71.35C111.412 69.775 111.188 68.2125 110.738 66.7125V66.7125ZM14 66V111.5C14 113.712 15.7875 115.5 18 115.5H26.125V62H18C15.7875 62 14 63.7875 14 66Z" />
</svg>