<svg width="65" height="65" viewBox="0 0 65 65" fill="none" xmlns="http://www.w3.org/2000/svg">
    <g clip-path="url(#clip0_32_17)">
        <path d="M61.0941 42.4072L44.1028 32.6035L61.0941 22.7997C62.0516 22.2472 62.3791 21.0247 61.8266 20.0672L57.8241 13.1385C57.2716 12.1822 56.0478 11.8535 55.0903 12.406L38.0991 22.2097V2.60345C38.0991 1.49845 37.2028 0.603455 36.0978 0.603455H28.0928C26.9878 0.603455 26.0916 1.49845 26.0916 2.60345V22.211L9.1003 12.4072C8.1428 11.8547 6.91905 12.1835 6.36655 13.1397L2.36405 20.0672C1.81155 21.0235 2.13905 22.2472 3.09655 22.7997L20.0878 32.6035L3.09655 42.4072C2.13905 42.9597 1.81155 44.1835 2.36405 45.1397L6.36655 52.0685C6.91905 53.0247 8.1428 53.3522 9.1003 52.801L26.0916 42.9972V62.6035C26.0916 63.7085 26.9878 64.6035 28.0928 64.6035H36.0978C37.2028 64.6035 38.0991 63.7085 38.0991 62.6035V42.996L55.0903 52.7997C56.0478 53.3522 57.2716 53.0247 57.8241 52.0672L61.8266 45.1385C62.3791 44.1822 62.0516 42.9597 61.0941 42.4072V42.4072Z" fill="#FF0000" />
    </g>
    <defs>
        <clipPath id="clip0_32_17">
            <rect width="64" height="64" fill="white" transform="translate(0.0953026 0.603455)" />
        </clipPath>
    </defs>
</svg>